<?xml version="1.0" encoding="UTF-8" standalone="no" ?>
<!DOCTYPE svg PUBLIC "-//W3C//DTD SVG 1.1//EN" "http://www.w3.org/Graphics/SVG/1.1/DTD/svg11.dtd">
<svg xmlns="http://www.w3.org/2000/svg" xmlns:xlink="http://www.w3.org/1999/xlink" version="1.1" width="1280" height="1024" viewBox="0 0 1280 1024" xml:space="preserve">
<desc>Created with Fabric.js 5.3.0</desc>
<defs>
</defs>
<g transform="matrix(1 0 0 1 640 512)" id="background-logo"  >
<rect style="stroke: none; stroke-width: 0; stroke-dasharray: none; stroke-linecap: butt; stroke-dashoffset: 0; stroke-linejoin: miter; stroke-miterlimit: 4; fill: rgb(255,255,255); fill-opacity: 0; fill-rule: nonzero; opacity: 1;"  paint-order="stroke"  x="-640" y="-512" rx="0" ry="0" width="1280" height="1024" />
</g>
<g transform="matrix(1.459692503404089 0 0 1.459692503404089 217.44878064516143 512.5088285229202)" id="logo-logo"  >
<g style=""  paint-order="stroke"   >
		<g transform="matrix(0.12198701644893505 0 0 -0.12198701644893505 0 0)"  >
<path style="stroke: none; stroke-width: 1; stroke-dasharray: none; stroke-linecap: butt; stroke-dashoffset: 0; stroke-linejoin: miter; stroke-miterlimit: 4; fill: rgb(246,250,254); fill-rule: nonzero; opacity: 1;"  paint-order="stroke"  transform=" translate(-946.955, -699.8900000000001)" d="M 1643.01 642.195 C 1644.56 661.238 1645.57 680.4380000000001 1645.57 699.8950000000001 C 1645.57 1086.43 1332.2199999999998 1399.7800000000002 945.6759999999999 1399.7800000000002 C 618.8909999999998 1399.7800000000002 344.44499999999994 1175.8000000000002 267.40599999999995 872.9880000000002 L 0 872.9880000000002 L 0 757.594 L 163.008 757.594 L 248.348 757.594 L 417.129 757.594 C 421.46500000000003 797.6020000000001 430.60900000000004 836.1170000000001 443.35200000000003 872.988 C 515.398 1081.39 713.105 1231.7 945.691 1231.7 C 1238.94 1231.7 1477.5 993.1370000000001 1477.5 699.8950000000001 C 1477.5 680.3910000000001 1476.29 661.1600000000001 1474.23 642.195 L 1446.14 642.195 L 1357.63 642.195 L 907.434 642.195 L 698.27 642.195 L 533.723 642.195 C 561.973 439.871 735.688 283.48 945.691 283.48 C 1113.49 283.48 1258.0700000000002 383.46900000000005 1323.95 526.8050000000001 L 1448.01 526.8050000000001 C 1375.97 318.398 1178.27 168.082 945.691 168.082 C 671.9570000000001 168.082 445.99600000000004 376.012 417.129 642.1949999999999 L 248.348 642.1949999999999 C 277.715 282.672 578.586 0 945.676 0 C 1272.47 0 1546.91 223.98 1623.95 526.805 L 1893.91 526.805 L 1893.91 642.1949999999999 L 1643.01 642.1949999999999" stroke-linecap="round" />
</g>
		<g transform="matrix(0.12198701644893505 0 0 -0.12198701644893505 -0.1559604005299775 -28.918486093417414)"  >
<path style="stroke: none; stroke-width: 1; stroke-dasharray: none; stroke-linecap: butt; stroke-dashoffset: 0; stroke-linejoin: miter; stroke-miterlimit: 4; fill: rgb(246,250,254); fill-rule: nonzero; opacity: 1;"  paint-order="stroke"  transform=" translate(-945.6765, -936.952)" d="M 1357.63 757.594 C 1329.39 959.922 1155.67 1116.31 945.691 1116.31 C 777.8710000000001 1116.31 633.2850000000001 1016.3299999999999 567.4100000000001 872.9879999999999 C 550.8520000000001 836.953 539.402 798.2299999999999 533.7230000000001 757.5939999999999 L 853.488 757.5939999999999 L 1357.63 757.5939999999999" stroke-linecap="round" />
</g>
</g>
</g>
<g transform="matrix(1.9211538461538462 0 0 1.9211538461538462 716.3239072122291 481.6132100424806)" id="text-logo"  >
<g style=""  paint-order="stroke"   >
		<g transform="matrix(1 0 0 1 0 0)" id="text-logo-path-0"  >
<path style="stroke: none; stroke-width: 0; stroke-dasharray: none; stroke-linecap: butt; stroke-dashoffset: 0; stroke-linejoin: miter; stroke-miterlimit: 4; fill: rgb(246,250,254); fill-rule: nonzero; opacity: 1;"  paint-order="stroke"  transform=" translate(-140.995, 16.875)" d="M 26.74 0 L 2.69 0 L 2.69 -33.75 L 26.47 -33.75 L 25.1 -25.1 L 13.5 -25.1 L 13.5 -20.57 L 24.31 -20.57 L 24.31 -12.74 L 13.5 -12.74 L 13.5 -8.65 L 26.74 -8.65 L 26.74 0 Z M 47.77 0 L 39.41 -33.75 L 50.8 -33.75 L 55.39 -12.31 L 55.89 -12.31 L 60.53 -33.75 L 71.92 -33.75 L 63.53 0 L 47.77 0 Z M 83.77 -16.85 L 83.77 -16.85 Q 83.77 -26.08 87.23 -30.32 Q 90.68 -34.57 99.7 -34.57 Q 108.72 -34.57 112.17 -30.32 Q 115.63 -26.08 115.63 -16.85 L 115.63 -16.85 Q 115.63 -12.26 114.9 -9.12 Q 114.18 -5.99 112.4 -3.67 Q 110.62 -1.34 107.48 -0.26 Q 104.34 0.82 99.7 0.82 Q 95.06 0.82 91.92 -0.26 Q 88.78 -1.34 87 -3.67 Q 85.22 -5.99 84.5 -9.12 Q 83.77 -12.26 83.77 -16.85 Z M 95.38 -22.46 L 95.38 -8.41 L 99.86 -8.41 Q 102.07 -8.41 103.07 -8.93 Q 104.08 -9.44 104.08 -11.29 L 104.08 -11.29 L 104.08 -25.34 L 99.54 -25.34 Q 97.38 -25.34 96.38 -24.82 Q 95.38 -24.31 95.38 -22.46 L 95.38 -22.46 Z M 151.82 0 L 130.2 0 L 130.2 -33.75 L 141.01 -33.75 L 141.01 -8.65 L 151.82 -8.65 L 151.82 0 Z M 171.21 0 L 162.85 -33.75 L 174.24 -33.75 L 178.83 -12.31 L 179.33 -12.31 L 183.97 -33.75 L 195.37 -33.75 L 186.98 0 L 171.21 0 Z M 232.88 0 L 208.83 0 L 208.83 -33.75 L 232.61 -33.75 L 231.24 -25.1 L 219.64 -25.1 L 219.64 -20.57 L 230.45 -20.57 L 230.45 -12.74 L 219.64 -12.74 L 219.64 -8.65 L 232.88 -8.65 L 232.88 0 Z M 263.37 0 L 248.24 0 L 248.24 -33.75 L 263.37 -33.75 Q 272.49 -33.75 275.9 -29.86 Q 279.3 -25.97 279.3 -16.88 Q 279.3 -7.78 275.9 -3.89 Q 272.49 0 263.37 0 L 263.37 0 Z M 259.05 -25.1 L 259.05 -8.65 L 263.53 -8.65 Q 265.74 -8.65 266.75 -9.16 Q 267.75 -9.68 267.75 -11.5 L 267.75 -11.5 L 267.75 -22.25 Q 267.75 -24.1 266.75 -24.6 Q 265.74 -25.1 263.53 -25.1 L 263.53 -25.1 L 259.05 -25.1 Z" stroke-linecap="round" />
</g>
</g>
</g>
<g transform="matrix(1.9211538461538462 0 0 1.9211538461538462 838.2990903872635 570.1124656299921)" id="tagline-59ab974d-a861-4c36-99c5-43b615ef7d0a-logo"  >
<g style=""  paint-order="stroke"   >
		<g transform="matrix(1 0 0 1 0 0)" id="tagline-59ab974d-a861-4c36-99c5-43b615ef7d0a-logo-path-0"  >
<path style="stroke: none; stroke-width: 0; stroke-dasharray: none; stroke-linecap: butt; stroke-dashoffset: 0; stroke-linejoin: miter; stroke-miterlimit: 4; fill: rgb(246,250,254); fill-rule: nonzero; opacity: 1;"  paint-order="stroke"  transform=" translate(-205.94000000000003, 9.8)" d="M 15.23 -19.6 Q 15.37 -19.6 15.47 -19.5 Q 15.57 -19.4 15.57 -19.26 L 15.57 -19.26 L 15.57 -16.52 Q 15.57 -16.38 15.47 -16.28 Q 15.37 -16.18 15.23 -16.18 L 15.23 -16.18 L 10.22 -16.18 Q 10.08 -16.18 10.08 -16.04 L 10.08 -16.04 L 10.08 -0.34 Q 10.08 -0.2 9.98 -0.1 Q 9.88 0 9.74 0 L 9.74 0 L 6.47 0 Q 6.33 0 6.23 -0.1 Q 6.13 -0.2 6.13 -0.34 L 6.13 -0.34 L 6.13 -16.04 Q 6.13 -16.18 5.99 -16.18 L 5.99 -16.18 L 1.12 -16.18 Q 0.98 -16.18 0.88 -16.28 Q 0.78 -16.38 0.78 -16.52 L 0.78 -16.52 L 0.78 -19.26 Q 0.78 -19.4 0.88 -19.5 Q 0.98 -19.6 1.12 -19.6 L 1.12 -19.6 L 15.23 -19.6 Z M 42.9 -16.55 Q 42.9 -16.41 42.8 -16.31 Q 42.7 -16.21 42.56 -16.21 L 42.56 -16.21 L 33.38 -16.21 Q 33.24 -16.21 33.24 -16.07 L 33.24 -16.07 L 33.24 -11.73 Q 33.24 -11.59 33.38 -11.59 L 33.38 -11.59 L 39.4 -11.59 Q 39.54 -11.59 39.63 -11.49 Q 39.73 -11.4 39.73 -11.26 L 39.73 -11.26 L 39.73 -8.54 Q 39.73 -8.4 39.63 -8.3 Q 39.54 -8.2 39.4 -8.2 L 39.4 -8.2 L 33.38 -8.2 Q 33.24 -8.2 33.24 -8.06 L 33.24 -8.06 L 33.24 -3.53 Q 33.24 -3.39 33.38 -3.39 L 33.38 -3.39 L 42.56 -3.39 Q 42.7 -3.39 42.8 -3.29 Q 42.9 -3.19 42.9 -3.05 L 42.9 -3.05 L 42.9 -0.34 Q 42.9 -0.2 42.8 -0.1 Q 42.7 0 42.56 0 L 42.56 0 L 29.62 0 Q 29.48 0 29.39 -0.1 Q 29.29 -0.2 29.29 -0.34 L 29.29 -0.34 L 29.29 -19.26 Q 29.29 -19.4 29.39 -19.5 Q 29.48 -19.6 29.62 -19.6 L 29.62 -19.6 L 42.56 -19.6 Q 42.7 -19.6 42.8 -19.5 Q 42.9 -19.4 42.9 -19.26 L 42.9 -19.26 L 42.9 -16.55 Z M 63.73 0.22 Q 61.54 0.22 59.89 -0.63 Q 58.24 -1.48 57.34 -3.02 Q 56.45 -4.56 56.45 -6.58 L 56.45 -6.58 L 56.45 -13.05 Q 56.45 -15.06 57.34 -16.6 Q 58.24 -18.14 59.89 -18.98 Q 61.54 -19.82 63.73 -19.82 L 63.73 -19.82 Q 65.88 -19.82 67.52 -19.03 Q 69.16 -18.23 70.07 -16.76 Q 70.98 -15.29 70.98 -13.36 L 70.98 -13.36 Q 70.98 -13.1 70.64 -13.05 L 70.64 -13.05 L 67.37 -12.85 L 67.31 -12.85 Q 67.03 -12.85 67.03 -13.16 L 67.03 -13.16 Q 67.03 -14.64 66.12 -15.54 Q 65.21 -16.44 63.73 -16.44 L 63.73 -16.44 Q 62.22 -16.44 61.31 -15.54 Q 60.4 -14.64 60.4 -13.16 L 60.4 -13.16 L 60.4 -6.41 Q 60.4 -4.96 61.31 -4.06 Q 62.22 -3.16 63.73 -3.16 L 63.73 -3.16 Q 65.21 -3.16 66.12 -4.06 Q 67.03 -4.96 67.03 -6.41 L 67.03 -6.41 Q 67.03 -6.72 67.37 -6.72 L 67.37 -6.72 L 70.64 -6.58 Q 70.78 -6.58 70.88 -6.5 Q 70.98 -6.41 70.98 -6.3 L 70.98 -6.3 Q 70.98 -4.37 70.07 -2.88 Q 69.16 -1.4 67.52 -0.59 Q 65.88 0.22 63.73 0.22 L 63.73 0.22 Z M 95.48 -19.26 Q 95.48 -19.4 95.58 -19.5 Q 95.68 -19.6 95.82 -19.6 L 95.82 -19.6 L 99.09 -19.6 Q 99.23 -19.6 99.33 -19.5 Q 99.43 -19.4 99.43 -19.26 L 99.43 -19.26 L 99.43 -0.34 Q 99.43 -0.2 99.33 -0.1 Q 99.23 0 99.09 0 L 99.09 0 L 95.82 0 Q 95.68 0 95.58 -0.1 Q 95.48 -0.2 95.48 -0.34 L 95.48 -0.34 L 95.48 -8.06 Q 95.48 -8.2 95.34 -8.2 L 95.34 -8.2 L 89.15 -8.2 Q 89.01 -8.2 89.01 -8.06 L 89.01 -8.06 L 89.01 -0.34 Q 89.01 -0.2 88.91 -0.1 Q 88.82 0 88.68 0 L 88.68 0 L 85.4 0 Q 85.26 0 85.16 -0.1 Q 85.06 -0.2 85.06 -0.34 L 85.06 -0.34 L 85.06 -19.26 Q 85.06 -19.4 85.16 -19.5 Q 85.26 -19.6 85.4 -19.6 L 85.4 -19.6 L 88.68 -19.6 Q 88.82 -19.6 88.91 -19.5 Q 89.01 -19.4 89.01 -19.26 L 89.01 -19.26 L 89.01 -11.73 Q 89.01 -11.59 89.15 -11.59 L 89.15 -11.59 L 95.34 -11.59 Q 95.48 -11.59 95.48 -11.73 L 95.48 -11.73 L 95.48 -19.26 Z M 143.25 -19.38 Q 143.39 -19.6 143.64 -19.6 L 143.64 -19.6 L 146.92 -19.6 Q 147.06 -19.6 147.15 -19.5 Q 147.25 -19.4 147.25 -19.26 L 147.25 -19.26 L 147.25 -0.34 Q 147.25 -0.2 147.15 -0.1 Q 147.06 0 146.92 0 L 146.92 0 L 143.64 0 Q 143.5 0 143.4 -0.1 Q 143.3 -0.2 143.3 -0.34 L 143.3 -0.34 L 143.3 -12.68 Q 143.3 -12.8 143.25 -12.8 Q 143.19 -12.8 143.14 -12.71 L 143.14 -12.71 L 140.17 -8.06 Q 140.03 -7.84 139.78 -7.84 L 139.78 -7.84 L 138.12 -7.84 Q 137.87 -7.84 137.73 -8.06 L 137.73 -8.06 L 134.76 -12.71 Q 134.71 -12.8 134.65 -12.78 Q 134.6 -12.77 134.6 -12.66 L 134.6 -12.66 L 134.6 -0.34 Q 134.6 -0.2 134.5 -0.1 Q 134.4 0 134.26 0 L 134.26 0 L 130.98 0 Q 130.84 0 130.75 -0.1 Q 130.65 -0.2 130.65 -0.34 L 130.65 -0.34 L 130.65 -19.26 Q 130.65 -19.4 130.75 -19.5 Q 130.84 -19.6 130.98 -19.6 L 130.98 -19.6 L 134.26 -19.6 Q 134.51 -19.6 134.65 -19.38 L 134.65 -19.38 L 138.85 -12.85 Q 138.94 -12.68 139.02 -12.85 L 139.02 -12.85 L 143.25 -19.38 Z M 174.33 0 Q 174.05 0 173.96 -0.28 L 173.96 -0.28 L 173.12 -3.02 Q 173.07 -3.14 172.98 -3.14 L 172.98 -3.14 L 166.1 -3.14 Q 166.01 -3.14 165.96 -3.02 L 165.96 -3.02 L 165.14 -0.28 Q 165.06 0 164.78 0 L 164.78 0 L 161.22 0 Q 161.06 0 160.97 -0.1 Q 160.89 -0.2 160.94 -0.39 L 160.94 -0.39 L 166.99 -19.32 Q 167.08 -19.6 167.36 -19.6 L 167.36 -19.6 L 171.75 -19.6 Q 172.03 -19.6 172.12 -19.32 L 172.12 -19.32 L 178.16 -0.39 Q 178.19 -0.34 178.19 -0.25 L 178.19 -0.25 Q 178.19 0 177.88 0 L 177.88 0 L 174.33 0 Z M 166.96 -6.36 Q 166.94 -6.19 167.08 -6.19 L 167.08 -6.19 L 172 -6.19 Q 172.17 -6.19 172.12 -6.36 L 172.12 -6.36 L 169.6 -14.67 Q 169.57 -14.78 169.51 -14.77 Q 169.46 -14.76 169.43 -14.67 L 169.43 -14.67 L 166.96 -6.36 Z M 192.19 0 Q 192.05 0 191.95 -0.1 Q 191.86 -0.2 191.86 -0.34 L 191.86 -0.34 L 191.86 -19.26 Q 191.86 -19.4 191.95 -19.5 Q 192.05 -19.6 192.19 -19.6 L 192.19 -19.6 L 199.19 -19.6 Q 201.29 -19.6 202.87 -18.86 Q 204.46 -18.12 205.32 -16.77 Q 206.19 -15.43 206.19 -13.66 L 206.19 -13.66 L 206.19 -5.94 Q 206.19 -4.17 205.32 -2.83 Q 204.46 -1.48 202.87 -0.74 Q 201.29 0 199.19 0 L 199.19 0 L 192.19 0 Z M 195.8 -3.53 Q 195.8 -3.39 195.94 -3.39 L 195.94 -3.39 L 199.33 -3.39 Q 200.62 -3.39 201.42 -4.26 Q 202.22 -5.12 202.24 -6.58 L 202.24 -6.58 L 202.24 -13.02 Q 202.24 -14.48 201.45 -15.34 Q 200.65 -16.21 199.3 -16.21 L 199.3 -16.21 L 195.94 -16.21 Q 195.8 -16.21 195.8 -16.07 L 195.8 -16.07 L 195.8 -3.53 Z M 233.97 -16.55 Q 233.97 -16.41 233.87 -16.31 Q 233.77 -16.21 233.63 -16.21 L 233.63 -16.21 L 224.45 -16.21 Q 224.31 -16.21 224.31 -16.07 L 224.31 -16.07 L 224.31 -11.73 Q 224.31 -11.59 224.45 -11.59 L 224.45 -11.59 L 230.47 -11.59 Q 230.61 -11.59 230.71 -11.49 Q 230.8 -11.4 230.8 -11.26 L 230.8 -11.26 L 230.8 -8.54 Q 230.8 -8.4 230.71 -8.3 Q 230.61 -8.2 230.47 -8.2 L 230.47 -8.2 L 224.45 -8.2 Q 224.31 -8.2 224.31 -8.06 L 224.31 -8.06 L 224.31 -3.53 Q 224.31 -3.39 224.45 -3.39 L 224.45 -3.39 L 233.63 -3.39 Q 233.77 -3.39 233.87 -3.29 Q 233.97 -3.19 233.97 -3.05 L 233.97 -3.05 L 233.97 -0.34 Q 233.97 -0.2 233.87 -0.1 Q 233.77 0 233.63 0 L 233.63 0 L 220.7 0 Q 220.56 0 220.46 -0.1 Q 220.36 -0.2 220.36 -0.34 L 220.36 -0.34 L 220.36 -19.26 Q 220.36 -19.4 220.46 -19.5 Q 220.56 -19.6 220.7 -19.6 L 220.7 -19.6 L 233.63 -19.6 Q 233.77 -19.6 233.87 -19.5 Q 233.97 -19.4 233.97 -19.26 L 233.97 -19.26 L 233.97 -16.55 Z M 271.43 0.22 Q 269.19 0.22 267.51 -0.49 Q 265.83 -1.2 264.92 -2.53 Q 264.01 -3.86 264.01 -5.63 L 264.01 -5.63 L 264.01 -6.24 Q 264.01 -6.38 264.11 -6.48 Q 264.21 -6.58 264.35 -6.58 L 264.35 -6.58 L 267.54 -6.58 Q 267.68 -6.58 267.78 -6.48 Q 267.88 -6.38 267.88 -6.24 L 267.88 -6.24 L 267.88 -5.82 Q 267.88 -4.7 268.91 -3.93 Q 269.95 -3.16 271.71 -3.16 L 271.71 -3.16 Q 273.2 -3.16 273.92 -3.79 Q 274.65 -4.42 274.65 -5.35 L 274.65 -5.35 Q 274.65 -6.02 274.2 -6.48 Q 273.76 -6.94 272.99 -7.29 Q 272.22 -7.64 270.54 -8.26 L 270.54 -8.26 Q 268.66 -8.9 267.36 -9.58 Q 266.06 -10.25 265.17 -11.41 Q 264.29 -12.57 264.29 -14.28 L 264.29 -14.28 Q 264.29 -15.96 265.16 -17.22 Q 266.03 -18.48 267.57 -19.15 Q 269.11 -19.82 271.12 -19.82 L 271.12 -19.82 Q 273.25 -19.82 274.92 -19.07 Q 276.58 -18.31 277.52 -16.95 Q 278.46 -15.6 278.46 -13.8 L 278.46 -13.8 L 278.46 -13.38 Q 278.46 -13.24 278.36 -13.15 Q 278.26 -13.05 278.12 -13.05 L 278.12 -13.05 L 274.9 -13.05 Q 274.76 -13.05 274.67 -13.15 Q 274.57 -13.24 274.57 -13.38 L 274.57 -13.38 L 274.57 -13.61 Q 274.57 -14.78 273.6 -15.61 Q 272.64 -16.44 270.96 -16.44 L 270.96 -16.44 Q 269.64 -16.44 268.9 -15.88 Q 268.16 -15.32 268.16 -14.34 L 268.16 -14.34 Q 268.16 -13.64 268.59 -13.16 Q 269.02 -12.68 269.88 -12.31 Q 270.73 -11.93 272.52 -11.28 L 272.52 -11.28 Q 274.51 -10.56 275.65 -10 Q 276.78 -9.44 277.69 -8.33 Q 278.6 -7.22 278.6 -5.46 L 278.6 -5.46 Q 278.6 -2.83 276.67 -1.3 Q 274.74 0.22 271.43 0.22 L 271.43 0.22 Z M 292.91 0 Q 292.77 0 292.67 -0.1 Q 292.57 -0.2 292.57 -0.34 L 292.57 -0.34 L 292.57 -19.26 Q 292.57 -19.4 292.67 -19.5 Q 292.77 -19.6 292.91 -19.6 L 292.91 -19.6 L 296.18 -19.6 Q 296.32 -19.6 296.42 -19.5 Q 296.52 -19.4 296.52 -19.26 L 296.52 -19.26 L 296.52 -0.34 Q 296.52 -0.2 296.42 -0.1 Q 296.32 0 296.18 0 L 296.18 0 L 292.91 0 Z M 323.74 -19.38 Q 323.88 -19.6 324.13 -19.6 L 324.13 -19.6 L 327.4 -19.6 Q 327.54 -19.6 327.64 -19.5 Q 327.74 -19.4 327.74 -19.26 L 327.74 -19.26 L 327.74 -0.34 Q 327.74 -0.2 327.64 -0.1 Q 327.54 0 327.4 0 L 327.4 0 L 324.13 0 Q 323.99 0 323.89 -0.1 Q 323.79 -0.2 323.79 -0.34 L 323.79 -0.34 L 323.79 -12.68 Q 323.79 -12.8 323.74 -12.8 Q 323.68 -12.8 323.62 -12.71 L 323.62 -12.71 L 320.66 -8.06 Q 320.52 -7.84 320.26 -7.84 L 320.26 -7.84 L 318.61 -7.84 Q 318.36 -7.84 318.22 -8.06 L 318.22 -8.06 L 315.25 -12.71 Q 315.2 -12.8 315.14 -12.78 Q 315.08 -12.77 315.08 -12.66 L 315.08 -12.66 L 315.08 -0.34 Q 315.08 -0.2 314.99 -0.1 Q 314.89 0 314.75 0 L 314.75 0 L 311.47 0 Q 311.33 0 311.23 -0.1 Q 311.14 -0.2 311.14 -0.34 L 311.14 -0.34 L 311.14 -19.26 Q 311.14 -19.4 311.23 -19.5 Q 311.33 -19.6 311.47 -19.6 L 311.47 -19.6 L 314.75 -19.6 Q 315 -19.6 315.14 -19.38 L 315.14 -19.38 L 319.34 -12.85 Q 319.42 -12.68 319.51 -12.85 L 319.51 -12.85 L 323.74 -19.38 Z M 350.45 -19.63 Q 352.3 -19.63 353.7 -18.87 Q 355.1 -18.12 355.87 -16.73 Q 356.64 -15.34 356.64 -13.55 L 356.64 -13.55 Q 356.64 -11.79 355.84 -10.44 Q 355.04 -9.1 353.6 -8.36 Q 352.16 -7.62 350.28 -7.62 L 350.28 -7.62 L 346.3 -7.62 Q 346.16 -7.62 346.16 -7.48 L 346.16 -7.48 L 346.16 -0.34 Q 346.16 -0.2 346.07 -0.1 Q 345.97 0 345.83 0 L 345.83 0 L 342.55 0 Q 342.41 0 342.31 -0.1 Q 342.22 -0.2 342.22 -0.34 L 342.22 -0.34 L 342.22 -19.29 Q 342.22 -19.43 342.31 -19.53 Q 342.41 -19.63 342.55 -19.63 L 342.55 -19.63 L 350.45 -19.63 Z M 349.86 -10.78 Q 351.15 -10.78 351.93 -11.52 Q 352.72 -12.26 352.72 -13.47 L 352.72 -13.47 Q 352.72 -14.7 351.93 -15.46 Q 351.15 -16.21 349.86 -16.21 L 349.86 -16.21 L 346.3 -16.21 Q 346.16 -16.21 346.16 -16.07 L 346.16 -16.07 L 346.16 -10.92 Q 346.16 -10.78 346.3 -10.78 L 346.3 -10.78 L 349.86 -10.78 Z M 370.61 0 Q 370.47 0 370.37 -0.1 Q 370.27 -0.2 370.27 -0.34 L 370.27 -0.34 L 370.27 -19.26 Q 370.27 -19.4 370.37 -19.5 Q 370.47 -19.6 370.61 -19.6 L 370.61 -19.6 L 373.88 -19.6 Q 374.02 -19.6 374.12 -19.5 Q 374.22 -19.4 374.22 -19.26 L 374.22 -19.26 L 374.22 -3.53 Q 374.22 -3.39 374.36 -3.39 L 374.36 -3.39 L 383.52 -3.39 Q 383.66 -3.39 383.75 -3.29 Q 383.85 -3.19 383.85 -3.05 L 383.85 -3.05 L 383.85 -0.34 Q 383.85 -0.2 383.75 -0.1 Q 383.66 0 383.52 0 L 383.52 0 L 370.61 0 Z M 411.1 -16.55 Q 411.1 -16.41 411 -16.31 Q 410.9 -16.21 410.76 -16.21 L 410.76 -16.21 L 401.58 -16.21 Q 401.44 -16.21 401.44 -16.07 L 401.44 -16.07 L 401.44 -11.73 Q 401.44 -11.59 401.58 -11.59 L 401.58 -11.59 L 407.6 -11.59 Q 407.74 -11.59 407.83 -11.49 Q 407.93 -11.4 407.93 -11.26 L 407.93 -11.26 L 407.93 -8.54 Q 407.93 -8.4 407.83 -8.3 Q 407.74 -8.2 407.6 -8.2 L 407.6 -8.2 L 401.58 -8.2 Q 401.44 -8.2 401.44 -8.06 L 401.44 -8.06 L 401.44 -3.53 Q 401.44 -3.39 401.58 -3.39 L 401.58 -3.39 L 410.76 -3.39 Q 410.9 -3.39 411 -3.29 Q 411.1 -3.19 411.1 -3.05 L 411.1 -3.05 L 411.1 -0.34 Q 411.1 -0.2 411 -0.1 Q 410.9 0 410.76 0 L 410.76 0 L 397.82 0 Q 397.68 0 397.59 -0.1 Q 397.49 -0.2 397.49 -0.34 L 397.49 -0.34 L 397.49 -19.26 Q 397.49 -19.4 397.59 -19.5 Q 397.68 -19.6 397.82 -19.6 L 397.82 -19.6 L 410.76 -19.6 Q 410.9 -19.6 411 -19.5 Q 411.1 -19.4 411.1 -19.26 L 411.1 -19.26 L 411.1 -16.55 Z" stroke-linecap="round" />
</g>
</g>
</g>
</svg>